<?xml version="1.0" encoding="UTF-8"?>
<svg id="Layer_1" data-name="Layer 1" xmlns="http://www.w3.org/2000/svg" viewBox="0 0 186.07 181.83">
  <defs>
    <style>
      .cls-1 {
        fill: #181816;
        stroke-width: 0px;
      }
    </style>
  </defs>
  <path class="cls-1" d="m92.95,2.46C42.77,2.46,2.09,43.13,2.09,93.32c0,40.14,26.03,74.2,62.14,86.22,4.54.84,6.21-1.97,6.21-4.37,0-2.17-.08-9.32-.12-16.92-25.28,5.5-30.61-10.72-30.61-10.72-4.13-10.5-10.09-13.29-10.09-13.29-8.24-5.64.62-5.52.62-5.52,9.12.64,13.93,9.36,13.93,9.36,8.1,13.89,21.26,9.87,26.44,7.55.82-5.87,3.17-9.88,5.77-12.15-20.18-2.3-41.4-10.09-41.4-44.9,0-9.92,3.55-18.03,9.36-24.39-.94-2.29-4.05-11.53.88-24.05,0,0,7.63-2.44,24.99,9.31,7.25-2.01,15.02-3.02,22.74-3.06,7.72.03,15.5,1.04,22.76,3.06,17.34-11.76,24.96-9.31,24.96-9.31,4.95,12.52,1.83,21.76.89,24.05,5.83,6.36,9.35,14.47,9.35,24.39,0,34.9-21.26,42.58-41.49,44.83,3.26,2.82,6.16,8.35,6.16,16.83,0,12.16-.11,21.94-.11,24.93,0,2.42,1.64,5.25,6.24,4.36,36.08-12.03,62.08-46.07,62.08-86.21,0-50.18-40.68-90.86-90.86-90.86Zm-56.83,129.43c-.2.45-.91.59-1.56.28-.66-.3-1.03-.91-.82-1.36.2-.46.91-.59,1.56-.28.66.3,1.04.92.81,1.37Zm4.47,3.99c-.43.4-1.28.22-1.86-.42-.59-.63-.71-1.48-.27-1.89.45-.4,1.27-.21,1.86.42.59.64.71,1.48.26,1.89Zm3.07,5.1c-.56.39-1.47.02-2.03-.78-.56-.81-.56-1.78.01-2.17.56-.39,1.46-.04,2.03.76.56.82.56,1.79-.01,2.19Zm5.19,5.91c-.5.55-1.56.4-2.34-.35-.79-.73-1.02-1.77-.52-2.32.5-.55,1.57-.4,2.35.35.79.73,1.03,1.78.5,2.32Zm6.7,1.99c-.22.71-1.24,1.04-2.27.73-1.03-.31-1.7-1.15-1.49-1.86.21-.72,1.24-1.05,2.28-.73,1.03.31,1.7,1.14,1.49,1.86Zm7.63.85c.03.75-.85,1.37-1.93,1.38-1.09.02-1.97-.58-1.98-1.32,0-.76.85-1.37,1.94-1.39,1.08-.02,1.97.58,1.97,1.33Zm7.49-.29c.13.73-.62,1.48-1.69,1.68-1.05.19-2.03-.26-2.17-.98-.13-.75.63-1.5,1.69-1.69,1.07-.19,2.04.25,2.17,1Z"/>
</svg>