<?xml version="1.0" encoding="UTF-8"?>
<svg id="Layer_1" data-name="Layer 1" xmlns="http://www.w3.org/2000/svg" viewBox="0 0 261.54 126.06">
  <defs>
    <style>
      .cls-1 {
        fill: #000100;
        stroke-width: 0px;
      }
    </style>
  </defs>
  <g>
    <path class="cls-1" d="m80.87,35.29c-.94.87-1.9,1.73-2.84,2.61-3.31,3.13-5.79,6.77-6.67,11.3-1.21,6.28.08,12.05,3.89,17.21,1.9,2.58,4.18,4.73,7.2,5.96.35.14.71.27,1.15.44-.39,1.07-.74,2.13-1.17,3.15-2.47,5.97-5.67,11.49-10.04,16.29-.81.89-1.73,1.7-2.67,2.46-3.19,2.58-6.77,3.58-10.81,2.4-2.01-.59-4-1.25-6.01-1.87-2.06-.64-4.15-1.15-6.33-1.2-2.7-.06-5.19.74-7.68,1.66-1.89.7-3.79,1.42-5.75,1.88-3.08.73-5.86-.22-8.41-1.94-2.58-1.74-4.61-4.03-6.37-6.55-4.42-6.31-7.79-13.14-9.85-20.58-1.84-6.62-2.35-13.34-1.32-20.14.91-6,3.15-11.41,7.37-15.88,4.37-4.63,9.76-6.54,16.07-5.91,3.14.31,6.15,1.22,9.16,2.1,1.26.37,2.54.64,3.81.96,1.81.46,3.61.25,5.36-.26,2.47-.73,4.92-1.55,7.39-2.28,3.67-1.09,7.4-1.4,11.19-.67,4.91.95,8.78,3.59,12.03,7.28.41.46.81.93,1.21,1.4.04.04.05.1.09.18Z"/>
    <path class="cls-1" d="m62.43,5.08c.05,1.08.2,2.09.13,3.09-.38,5.46-2.52,10.15-6.29,14.1-1.7,1.78-3.58,3.35-5.9,4.27-1.98.78-4.07.95-6.17,1.1-.03,0-.07-.03-.1-.05.29-12.18,6.44-20.06,18.33-22.51Z"/>
  </g>
  <g>
    <path class="cls-1" d="m107.05,19.56c4.86-.81,11.23-1.51,19.33-1.51,9.96,0,17.25,2.32,21.88,6.48,4.28,3.7,6.83,9.38,6.83,16.32s-2.08,12.62-6.02,16.67c-5.33,5.67-14.01,8.57-23.85,8.57-3.01,0-5.79-.12-8.1-.69v31.26h-10.07V19.56Zm10.07,37.63c2.2.58,4.98.81,8.34.81,12.16,0,19.57-5.9,19.57-16.67s-7.29-15.28-18.41-15.28c-4.4,0-7.76.35-9.49.81v30.33Z"/>
    <path class="cls-1" d="m191.44,96.67l-.81-7.06h-.35c-3.13,4.4-9.15,8.34-17.13,8.34-11.35,0-17.14-7.99-17.14-16.09,0-13.55,12.04-20.96,33.69-20.84v-1.16c0-4.63-1.27-12.97-12.74-12.97-5.21,0-10.65,1.62-14.59,4.17l-2.32-6.71c4.63-3.01,11.35-4.98,18.41-4.98,17.14,0,21.3,11.69,21.3,22.92v20.96c0,4.86.23,9.61.93,13.43h-9.26Zm-1.51-28.6c-11.11-.23-23.73,1.74-23.73,12.62,0,6.6,4.4,9.73,9.61,9.73,7.29,0,11.92-4.63,13.55-9.38.35-1.04.58-2.2.58-3.24v-9.73Z"/>
    <path class="cls-1" d="m213.31,40.64l12.27,33.11c1.27,3.7,2.66,8.1,3.59,11.46h.23c1.04-3.36,2.2-7.64,3.59-11.69l11.11-32.88h10.77l-15.28,39.94c-7.29,19.22-12.27,29.06-19.22,35.08-4.98,4.4-9.96,6.14-12.5,6.6l-2.55-8.57c2.55-.81,5.9-2.43,8.91-4.98,2.78-2.2,6.25-6.14,8.57-11.35.46-1.04.81-1.85.81-2.43s-.23-1.39-.69-2.66l-20.72-51.64h11.11Z"/>
  </g>
</svg>