<?xml version="1.0" encoding="UTF-8"?>
<svg id="Layer_1" data-name="Layer 1" xmlns="http://www.w3.org/2000/svg" viewBox="0 0 348.99 70.59">
  <defs>
    <style>
      .cls-1 {
        fill: #010101;
        stroke-width: 0px;
      }
    </style>
  </defs>
  <g>
    <path class="cls-1" d="m53.67,52.68c-1.23,3.08-3.08,5.72-5.38,7.91-2.36,2.19-5.16,3.93-8.47,5.16-3.31,1.23-6.96,1.85-10.99,1.85s-7.8-.62-11.05-1.85-6.06-2.92-8.36-5.16c-2.3-2.19-4.04-4.82-5.27-7.91-1.18-3.08-1.79-6.45-1.79-10.21V3.77h14.92v37.47c0,1.68.22,3.31.67,4.82s1.12,2.86,2.02,4.09c.9,1.18,2.13,2.13,3.59,2.86,1.51.73,3.31,1.07,5.38,1.07s3.93-.34,5.38-1.07c1.51-.73,2.69-1.63,3.65-2.86.95-1.18,1.63-2.58,2.02-4.09.39-1.51.62-3.14.62-4.82V3.77h14.98v38.7c0,3.76-.62,7.12-1.91,10.21Z"/>
    <path class="cls-1" d="m105.16,65.92l-13.57-21.93-13.07,21.93h-17.89l21.76-32.81L62.37,3.77h18.06l11.55,19.29,11.44-19.29h17.44l-19.63,29.28,22.44,32.81h-18.51v.06Z"/>
    <path class="cls-1" d="m162.21,19.93c-1.29-1.63-2.97-2.92-5.05-3.93-2.08-.95-4.09-1.46-6-1.46-1.01,0-2.02.11-3.03.28s-1.96.5-2.75,1.01c-.84.5-1.51,1.12-2.08,1.91s-.84,1.79-.84,3.03c0,1.07.22,1.91.67,2.64.45.73,1.07,1.29,1.91,1.85.84.5,1.85,1.01,3.03,1.46s2.47.9,3.93,1.35c2.13.73,4.32,1.46,6.56,2.3,2.3.84,4.37,1.96,6.23,3.37,1.85,1.4,3.42,3.14,4.66,5.22,1.23,2.08,1.85,4.66,1.85,7.74,0,3.59-.67,6.67-1.96,9.25s-3.08,4.77-5.33,6.45-4.77,2.97-7.63,3.76c-2.86.84-5.83,1.23-8.86,1.23-4.43,0-8.75-.79-12.9-2.3-4.15-1.57-7.63-3.76-10.38-6.62l9.82-9.98c1.51,1.85,3.53,3.42,6,4.71,2.47,1.23,4.94,1.91,7.4,1.91,1.12,0,2.19-.11,3.25-.34s1.96-.62,2.75-1.12,1.4-1.23,1.91-2.13c.45-.9.73-1.91.73-3.14s-.28-2.19-.9-2.97c-.56-.84-1.4-1.57-2.52-2.24-1.07-.67-2.41-1.29-4.04-1.85-1.63-.56-3.42-1.18-5.5-1.79-1.96-.62-3.93-1.4-5.83-2.3s-3.59-2.02-5.1-3.37c-1.51-1.35-2.69-3.03-3.59-4.99-.9-1.96-1.35-4.32-1.35-7.12,0-3.48.73-6.39,2.13-8.86,1.4-2.47,3.25-4.49,5.55-6.06,2.3-1.57,4.88-2.75,7.74-3.48s5.78-1.12,8.69-1.12c3.53,0,7.07.62,10.77,1.91,3.65,1.29,6.84,3.2,9.59,5.72l-9.54,10.1Z"/>
    <path class="cls-1" d="m228.33,22.9c0,3.65-.67,6.67-2.02,9.14-1.35,2.47-3.14,4.49-5.44,6s-4.94,2.64-7.91,3.31c-2.97.73-6.06,1.07-9.31,1.07h-7.46v23.45h-15.03V3.77h22.83c3.37,0,6.56.34,9.54,1.01,2.97.67,5.55,1.74,7.74,3.25,2.19,1.51,3.93,3.48,5.16,5.89,1.29,2.41,1.91,5.38,1.91,8.97Zm-14.98.11c0-1.46-.28-2.64-.9-3.59-.56-.95-1.4-1.68-2.36-2.19-1.01-.5-2.13-.9-3.37-1.07-1.23-.17-2.58-.28-3.93-.28h-6.56v14.64h6.34c1.4,0,2.75-.11,4.04-.34,1.29-.22,2.47-.62,3.48-1.23,1.01-.56,1.85-1.35,2.41-2.3.5-1.01.84-2.19.84-3.65Z"/>
    <path class="cls-1" d="m327.67,16.56v49.3h-14.98V16.56h-17.56V3.77h50.09v12.79h-17.56Z"/>
  </g>
  <circle class="cls-1" cx="264.06" cy="34.12" r="20.25" transform="translate(170.19 283.28) rotate(-76.72)"/>
</svg>