<?xml version="1.0" encoding="UTF-8"?>
<svg id="Layer_1" data-name="Layer 1" xmlns="http://www.w3.org/2000/svg" viewBox="0 0 390.32 153.88">
  <defs>
    <style>
      .cls-1 {
        fill: #3a53a4;
      }

      .cls-1, .cls-2, .cls-3 {
        stroke-width: 0px;
      }

      .cls-2 {
        fill: #333;
      }

      .cls-3 {
        fill: #ed3393;
      }
    </style>
  </defs>
  <path class="cls-1" d="m150.89,14.24V2.47c-14.14,0-27.45,5.5-37.49,15.55-1.34,1.34-2.62,2.75-3.84,4.22l.06,33.21c0-22.71,18.49-41.2,41.27-41.2Zm-41.27,41.27c0,8.57-2.05,16.89-5.89,24.31,2.5,4.8,5.69,9.21,9.66,13.12,10.05,10.05,23.35,15.55,37.49,15.55v-11.77c-22.78,0-41.27-18.49-41.27-41.2h0Z"/>
  <path class="cls-1" d="m109.62,55.44c0-8.64-2.05-16.89-5.89-24.31-1.66-3.2-3.65-6.27-5.95-9.09-1.15-1.41-2.37-2.75-3.65-4.09-10.05-9.98-23.35-15.48-37.56-15.48v11.77c22.71,0,41.2,18.49,41.27,41.2v.13c0,.7,0,1.47-.06,2.18-1.22,24.95-21.82,44.79-47.09,44.79S3.54,81.42,3.54,55.38v.13c0,14.14,5.5,27.45,15.55,37.49,10.05,9.98,23.35,15.48,37.49,15.48s27.45-5.5,37.49-15.55c3.9-3.9,7.17-8.38,9.66-13.18,3.84-7.36,5.89-15.68,5.89-24.31h0Z"/>
  <path class="cls-3" d="m56.58,96.71c-22.71,0-41.27-18.49-41.27-41.2V2.4H3.54v52.91c0,26.04,21.11,47.15,47.15,47.15s45.87-19.83,47.09-44.79c-1.15,21.75-19.19,39.03-41.2,39.03h0ZM109.56,22.24l-.06-19.71h-11.77l.06,19.51c2.3,2.82,4.29,5.89,5.95,9.09,3.84,7.42,5.89,15.74,5.89,24.31l-.06-33.21Z"/>
  <g>
    <path class="cls-2" d="m168.29,46.61v40.24h-11.39V23.52h11l18.87,31.73,19-31.73h10.88v63.34h-12.03v-40.24l-16.06,27.96h-3.84l-16.44-27.96Zm54.19-23.1h36.85v11.58h-24.82v14.33h24.82v10.68h-24.82v15.04h24.82v11.71h-36.85V23.52Zm43.12,63.34V23.52h17.91c5.44,0,10.11.77,13.95,2.3s6.97,3.65,9.41,6.4,4.16,6.01,5.25,9.85c1.09,3.77,1.66,8,1.66,12.54,0,4.16-.51,8.19-1.6,12.03-1.02,3.84-2.82,7.29-5.25,10.3s-5.69,5.37-9.73,7.23c-4.03,1.79-8.96,2.75-14.91,2.75h-16.7v-.06Zm12.03-52.59v41.91h6.14c3.39,0,6.21-.58,8.45-1.79s4.03-2.82,5.37-4.8,2.24-4.29,2.75-6.91.77-5.31.77-8.06c0-2.43-.26-4.8-.7-7.23s-1.34-4.61-2.56-6.53c-1.28-1.92-2.94-3.52-5.12-4.73s-4.93-1.86-8.25-1.86h-6.85Zm42.1-10.75h12.03v63.34h-12.03V23.52Zm49.2,48.75h-18.87l-4.67,14.59h-12.03l22.14-63.34h8.89l22.14,63.34h-12.67l-4.93-14.59Zm-9.02-33.01h-.45l-6.33,23.35h13.18l-6.4-23.35Z"/>
    <g>
      <path class="cls-2" d="m3.54,151.03v-18.81h3.97v18.81h-3.97Zm25.4,0h-5.05l-8.19-14.2h-.13c.19,2.5.26,4.29.26,5.37v8.83h-3.52v-18.81h5.05l8.19,14.08h.06c-.13-2.43-.19-4.16-.19-5.18v-8.89h3.52v18.81Zm12.03,0h-3.97v-15.48h-5.12v-3.33h14.2v3.33h-5.12v15.48Zm18.81,0h-10.81v-18.81h10.81v3.26h-6.85v4.16h6.33v3.26h-6.33v4.86h6.85v3.26Zm7.93-7.23v7.23h-3.97v-18.81h5.5c2.56,0,4.41.45,5.69,1.41,1.22.96,1.86,2.37,1.86,4.22,0,1.09-.32,2.11-.9,2.94-.64.83-1.47,1.54-2.56,2.05,2.82,4.22,4.67,6.97,5.5,8.19h-4.41l-4.48-7.23h-2.24Zm0-3.2h1.28c1.28,0,2.18-.19,2.82-.64.58-.45.9-1.09.9-1.98s-.32-1.54-.9-1.92c-.64-.38-1.54-.58-2.88-.58h-1.22v5.12Z"/>
      <path class="cls-2" d="m92.6,151.03l-1.34-4.48h-6.85l-1.34,4.48h-4.29l6.65-18.87h4.86l6.65,18.87h-4.35Zm-2.3-7.81c-1.28-4.03-1.98-6.33-2.11-6.91-.13-.51-.26-.96-.32-1.28-.26,1.09-1.09,3.84-2.43,8.13h4.86v.06Zm16.96-7.93c-1.47,0-2.69.58-3.46,1.66-.83,1.15-1.22,2.69-1.22,4.73,0,4.22,1.6,6.27,4.73,6.27,1.34,0,2.94-.32,4.8-.96v3.33c-1.54.64-3.26.96-5.18.96-2.75,0-4.8-.83-6.27-2.5s-2.18-4.03-2.18-7.17c0-1.98.38-3.65,1.09-5.12s1.73-2.62,3.07-3.39,2.88-1.15,4.67-1.15,3.65.45,5.5,1.34l-1.28,3.26c-.7-.32-1.41-.64-2.11-.9-.83-.26-1.54-.38-2.18-.38h0Zm16.06,15.74h-3.97v-15.48h-5.12v-3.33h14.2v3.33h-5.12v15.48Zm8,0v-18.81h3.97v18.81h-3.97Zm19.39-18.81h4.03l-6.4,18.81h-4.35l-6.4-18.81h4.03l3.52,11.2c.19.64.38,1.41.64,2.3.19.9.32,1.47.38,1.86.06-.77.38-2.18.96-4.16l3.58-11.2Zm17.21,18.81h-10.81v-18.81h10.81v3.26h-6.85v4.16h6.33v3.26h-6.33v4.86h6.85v3.26Zm18.75,0l-4.54-14.78h-.13c.19,3.01.26,4.99.26,6.01v8.77h-3.58v-18.81h5.44l4.48,14.4h.06l4.73-14.4h5.44v18.81h-3.71v-10.37c0-.58.06-1.98.19-4.35h-.13l-4.86,14.72h-3.65Zm27.7,0h-10.81v-18.81h10.81v3.26h-6.85v4.16h6.33v3.26h-6.33v4.86h6.85v3.26Zm19.51-9.53c0,3.07-.9,5.44-2.62,7.1-1.79,1.66-4.29,2.5-7.61,2.5h-5.31v-18.81h5.89c3.07,0,5.44.83,7.17,2.43s2.5,3.84,2.5,6.78h0Zm-4.16.06c0-4.03-1.79-6.08-5.37-6.08h-2.11v12.22h1.73c3.84.06,5.76-1.98,5.76-6.14h0Zm8.06,9.47v-18.81h3.97v18.81h-3.97Zm20.22,0l-1.34-4.48h-6.85l-1.34,4.48h-4.29l6.65-18.87h4.86l6.65,18.87h-4.35Zm-2.3-7.81c-1.28-4.03-1.98-6.33-2.11-6.91-.13-.51-.26-.96-.32-1.28-.26,1.09-1.09,3.84-2.43,8.13h4.86v.06Zm26.94,2.62c0,1.73-.64,3.01-1.86,4.03-1.22.96-2.94,1.47-5.12,1.47-1.98,0-3.77-.38-5.31-1.15v-3.71c1.28.58,2.37.96,3.2,1.22.9.26,1.66.32,2.43.32.9,0,1.54-.19,1.98-.51s.7-.83.7-1.47c0-.38-.13-.7-.32-.96s-.51-.58-.9-.83-1.22-.7-2.43-1.28c-1.15-.51-1.98-1.09-2.56-1.54-.58-.51-1.02-1.09-1.41-1.73-.32-.64-.51-1.41-.51-2.3,0-1.66.58-2.94,1.66-3.9,1.15-.96,2.69-1.41,4.67-1.41.96,0,1.92.13,2.82.32.9.26,1.79.58,2.82.96l-1.28,3.07c-1.02-.38-1.86-.7-2.5-.83-.64-.19-1.28-.26-1.92-.26-.77,0-1.34.19-1.73.51s-.58.83-.58,1.41c0,.32.06.64.26.9s.45.51.77.77c.38.26,1.22.7,2.5,1.34,1.73.83,2.94,1.66,3.58,2.5.64.77,1.02,1.79,1.02,3.07h0Zm14.2,5.18h-10.81v-18.81h10.81v3.26h-6.85v4.16h6.33v3.26h-6.33v4.86h6.85v3.26Zm7.93-7.23v7.23h-3.97v-18.81h5.5c2.56,0,4.41.45,5.69,1.41,1.22.96,1.86,2.37,1.86,4.22,0,1.09-.32,2.11-.9,2.94-.64.83-1.47,1.54-2.56,2.05,2.82,4.22,4.67,6.97,5.5,8.19h-4.41l-4.48-7.23h-2.24Zm0-3.2h1.28c1.28,0,2.18-.19,2.82-.64.58-.45.9-1.09.9-1.98s-.32-1.54-.9-1.92c-.64-.38-1.54-.58-2.88-.58h-1.22v5.12Zm24.12-8.38h4.03l-6.4,18.81h-4.35l-6.4-18.81h4.03l3.52,11.2c.19.64.38,1.41.64,2.3.19.9.32,1.47.38,1.86.06-.77.38-2.18.96-4.16l3.58-11.2Zm6.4,18.81v-18.81h3.97v18.81h-3.97Zm16.7-15.74c-1.47,0-2.69.58-3.46,1.66-.83,1.15-1.22,2.69-1.22,4.73,0,4.22,1.6,6.27,4.73,6.27,1.34,0,2.94-.32,4.8-.96v3.33c-1.54.64-3.26.96-5.18.96-2.75,0-4.8-.83-6.27-2.5s-2.18-4.03-2.18-7.17c0-1.98.38-3.65,1.09-5.12s1.73-2.62,3.07-3.39,2.88-1.15,4.67-1.15,3.65.45,5.5,1.34l-1.28,3.26c-.7-.32-1.41-.64-2.11-.9-.83-.26-1.54-.38-2.18-.38h0Zm19.58,15.74h-10.81v-18.81h10.81v3.26h-6.85v4.16h6.33v3.26h-6.33v4.86h6.85v3.26Zm15.04-5.18c0,1.73-.64,3.01-1.86,4.03-1.22.96-2.94,1.47-5.12,1.47-1.98,0-3.77-.38-5.31-1.15v-3.71c1.28.58,2.37.96,3.2,1.22.9.26,1.66.32,2.43.32.9,0,1.54-.19,1.98-.51s.7-.83.7-1.47c0-.38-.13-.7-.32-.96s-.51-.58-.9-.83-1.22-.7-2.43-1.28c-1.15-.51-1.98-1.09-2.56-1.54-.58-.51-1.02-1.09-1.41-1.73-.32-.64-.51-1.41-.51-2.3,0-1.66.58-2.94,1.66-3.9,1.15-.96,2.69-1.41,4.67-1.41.96,0,1.92.13,2.82.32.9.26,1.79.58,2.82.96l-1.28,3.07c-1.02-.38-1.86-.7-2.5-.83-.64-.19-1.28-.26-1.92-.26-.77,0-1.34.19-1.73.51s-.58.83-.58,1.41c0,.32.06.64.26.9s.45.51.77.77c.38.26,1.22.7,2.5,1.34,1.73.83,2.94,1.66,3.58,2.5.7.77,1.02,1.79,1.02,3.07h0Z"/>
    </g>
  </g>
</svg>