<svg width="150" height="67" viewBox="0 0 150 67" fill="none" xmlns="http://www.w3.org/2000/svg">
<mask id="path-1-inside-1_131_17114" fill="white">
<path fill-rule="evenodd" clip-rule="evenodd" d="M121.188 7.17737C120.248 6.22144 118.964 5.68304 117.623 5.68304H10.5884C7.82695 5.68304 5.58838 7.92162 5.58838 10.683V40.7387C5.58838 42.0502 6.10368 43.3093 7.02323 44.2444L27.9298 65.5057C28.8698 66.4616 30.1543 67 31.495 67H145C147.762 67 150 64.7614 150 62V38.5246C150 37.2131 149.485 35.9541 148.565 35.019L121.188 7.17737Z"/>
</mask>
<path fill-rule="evenodd" clip-rule="evenodd" d="M121.188 7.17737C120.248 6.22144 118.964 5.68304 117.623 5.68304H10.5884C7.82695 5.68304 5.58838 7.92162 5.58838 10.683V40.7387C5.58838 42.0502 6.10368 43.3093 7.02323 44.2444L27.9298 65.5057C28.8698 66.4616 30.1543 67 31.495 67H145C147.762 67 150 64.7614 150 62V38.5246C150 37.2131 149.485 35.9541 148.565 35.019L121.188 7.17737Z" fill="#BB2D00"/>
<path d="M148.565 35.019L147.139 36.4212L148.565 35.019ZM7.02323 44.2444L5.59718 45.6467L7.02323 44.2444ZM121.188 7.17737L122.614 5.7751L121.188 7.17737ZM117.623 3.68304H10.5884V7.68304H117.623V3.68304ZM3.58838 10.683V40.7387H7.58838V10.683H3.58838ZM5.59718 45.6467L26.5038 66.9079L29.3559 64.1034L8.44929 42.8421L5.59718 45.6467ZM31.495 69H145V65H31.495V69ZM152 62V38.5246H148V62H152ZM149.991 33.6167L122.614 5.7751L119.762 8.57964L147.139 36.4212L149.991 33.6167ZM152 38.5246C152 36.6885 151.279 34.9259 149.991 33.6167L147.139 36.4212C147.691 36.9823 148 37.7377 148 38.5246H152ZM145 69C148.866 69 152 65.866 152 62H148C148 63.6569 146.657 65 145 65V69ZM26.5038 66.9079C27.8198 68.2462 29.6181 69 31.495 69V65C30.6906 65 29.9199 64.677 29.3559 64.1034L26.5038 66.9079ZM3.58838 40.7387C3.58838 42.5749 4.30981 44.3375 5.59718 45.6467L8.44929 42.8421C7.89756 42.281 7.58838 41.5256 7.58838 40.7387H3.58838ZM10.5884 3.68304C6.72238 3.68304 3.58838 6.81705 3.58838 10.683H7.58838C7.58838 9.02619 8.93152 7.68304 10.5884 7.68304V3.68304ZM117.623 7.68304C118.427 7.68304 119.198 8.00608 119.762 8.57964L122.614 5.7751C121.298 4.4368 119.5 3.68304 117.623 3.68304V7.68304Z" fill="black" mask="url(#path-1-inside-1_131_17114)"/>
<mask id="path-3-inside-2_131_17114" fill="white">
<path fill-rule="evenodd" clip-rule="evenodd" d="M115.6 1.49432C114.66 0.538395 113.375 0 112.035 0H5C2.23857 0 0 2.23858 0 5V35.0557C0 36.3672 0.515306 37.6262 1.43485 38.5614L22.3415 59.8226C23.2814 60.7786 24.5659 61.317 25.9066 61.317H139.412C142.173 61.317 144.412 59.0784 144.412 56.317V32.8416C144.412 31.5301 143.896 30.2711 142.977 29.3359L115.6 1.49432Z"/>
</mask>
<path fill-rule="evenodd" clip-rule="evenodd" d="M115.6 1.49432C114.66 0.538395 113.375 0 112.035 0H5C2.23857 0 0 2.23858 0 5V35.0557C0 36.3672 0.515306 37.6262 1.43485 38.5614L22.3415 59.8226C23.2814 60.7786 24.5659 61.317 25.9066 61.317H139.412C142.173 61.317 144.412 59.0784 144.412 56.317V32.8416C144.412 31.5301 143.896 30.2711 142.977 29.3359L115.6 1.49432Z" fill="#FF8126"/>
<path d="M142.977 29.3359L141.551 30.7382L142.977 29.3359ZM22.3415 59.8226L23.7675 58.4204L22.3415 59.8226ZM1.43485 38.5614L0.0087969 39.9636L1.43485 38.5614ZM115.6 1.49432L114.174 2.89659L115.6 1.49432ZM112.035 -2H5V2H112.035V-2ZM-2 5V35.0557H2V5H-2ZM0.0087969 39.9636L20.9154 61.2249L23.7675 58.4204L2.86091 37.1591L0.0087969 39.9636ZM25.9066 63.317H139.412V59.317H25.9066V63.317ZM146.412 56.317V32.8416H142.412V56.317H146.412ZM144.403 27.9337L117.026 0.0920557L114.174 2.89659L141.551 30.7382L144.403 27.9337ZM146.412 32.8416C146.412 31.0055 145.69 29.2429 144.403 27.9337L141.551 30.7382C142.103 31.2993 142.412 32.0547 142.412 32.8416H146.412ZM139.412 63.317C143.278 63.317 146.412 60.1829 146.412 56.317H142.412C142.412 57.9738 141.069 59.317 139.412 59.317V63.317ZM20.9154 61.2249C22.2314 62.5632 24.0297 63.317 25.9066 63.317V59.317C25.1022 59.317 24.3315 58.9939 23.7675 58.4204L20.9154 61.2249ZM-2 35.0557C-2 36.8918 -1.27857 38.6544 0.0087969 39.9636L2.86091 37.1591C2.30918 36.598 2 35.8426 2 35.0557H-2ZM5 -2C1.134 -2 -2 1.13401 -2 5H2C2 3.34314 3.34314 2 5 2V-2ZM112.035 2C112.839 2 113.61 2.32304 114.174 2.89659L117.026 0.0920557C115.71 -1.24625 113.911 -2 112.035 -2V2Z" fill="black" mask="url(#path-3-inside-2_131_17114)"/>
<path d="M43.0697 35V27H46.2729C46.8614 27 47.3523 27.0872 47.7455 27.2617C48.1387 27.4362 48.4343 27.6784 48.6322 27.9883C48.8301 28.2956 48.9291 28.6497 48.9291 29.0508C48.9291 29.3633 48.8666 29.638 48.7416 29.875C48.6166 30.1094 48.4447 30.3021 48.226 30.4531C48.0098 30.6016 47.7624 30.707 47.4838 30.7695V30.8477C47.7885 30.8607 48.0736 30.9466 48.3393 31.1055C48.6075 31.2643 48.8249 31.487 48.9916 31.7734C49.1583 32.0573 49.2416 32.3958 49.2416 32.7891C49.2416 33.2135 49.1361 33.5924 48.9252 33.9258C48.7169 34.2565 48.4083 34.5182 47.9994 34.7109C47.5906 34.9036 47.0867 35 46.4877 35H43.0697ZM44.7611 33.6172H46.14C46.6114 33.6172 46.9551 33.5273 47.1713 33.3477C47.3874 33.1654 47.4955 32.9232 47.4955 32.6211C47.4955 32.3997 47.4421 32.2044 47.3354 32.0352C47.2286 31.8659 47.0762 31.7331 46.8783 31.6367C46.683 31.5404 46.4499 31.4922 46.1791 31.4922H44.7611V33.6172ZM44.7611 30.3477H46.015C46.2468 30.3477 46.4525 30.3073 46.6322 30.2266C46.8145 30.1432 46.9577 30.026 47.0619 29.875C47.1687 29.724 47.2221 29.543 47.2221 29.332C47.2221 29.043 47.1192 28.8099 46.9135 28.6328C46.7104 28.4557 46.4213 28.3672 46.0463 28.3672H44.7611V30.3477ZM54.1586 32.4453V29H55.8227V35H54.225V33.9102H54.1625C54.0271 34.2617 53.8018 34.5443 53.4867 34.7578C53.1742 34.9714 52.7927 35.0781 52.3422 35.0781C51.9411 35.0781 51.5883 34.987 51.2836 34.8047C50.9789 34.6224 50.7406 34.3633 50.5687 34.0273C50.3995 33.6914 50.3135 33.2891 50.3109 32.8203V29H51.975V32.5234C51.9776 32.8776 52.0727 33.1576 52.2602 33.3633C52.4477 33.569 52.699 33.6719 53.0141 33.6719C53.2146 33.6719 53.4021 33.6263 53.5766 33.5352C53.751 33.4414 53.8917 33.3034 53.9984 33.1211C54.1078 32.9388 54.1612 32.7135 54.1586 32.4453ZM58.1811 37.25C57.9701 37.25 57.7722 37.2331 57.5873 37.1992C57.405 37.168 57.254 37.1276 57.1342 37.0781L57.5092 35.8359C57.7045 35.8958 57.8803 35.9284 58.0365 35.9336C58.1954 35.9388 58.3321 35.9023 58.4467 35.8242C58.5639 35.7461 58.6589 35.6133 58.7318 35.4258L58.8295 35.1719L56.6771 29H58.4271L59.6693 33.4062H59.7318L60.9857 29H62.7475L60.4154 35.6484C60.3034 35.9714 60.1511 36.2526 59.9584 36.4922C59.7683 36.7344 59.5274 36.9206 59.2357 37.0508C58.9441 37.1836 58.5925 37.25 58.1811 37.25ZM69.3363 29V30.25H65.723V29H69.3363ZM66.5434 27.5625H68.2074V33.1562C68.2074 33.3099 68.2309 33.4297 68.2777 33.5156C68.3246 33.599 68.3897 33.6576 68.473 33.6914C68.559 33.7253 68.6579 33.7422 68.7699 33.7422C68.848 33.7422 68.9262 33.7357 69.0043 33.7227C69.0824 33.707 69.1423 33.6953 69.184 33.6875L69.4457 34.9258C69.3624 34.9518 69.2452 34.9818 69.0941 35.0156C68.9431 35.0521 68.7595 35.0742 68.5434 35.082C68.1423 35.0977 67.7908 35.0443 67.4887 34.9219C67.1892 34.7995 66.9561 34.6094 66.7895 34.3516C66.6228 34.0937 66.5408 33.7682 66.5434 33.375V27.5625ZM70.4203 35V29H72.0844V35H70.4203ZM71.2562 28.2266C71.0089 28.2266 70.7966 28.1445 70.6195 27.9805C70.4451 27.8138 70.3578 27.6146 70.3578 27.3828C70.3578 27.1536 70.4451 26.957 70.6195 26.793C70.7966 26.6263 71.0089 26.543 71.2562 26.543C71.5036 26.543 71.7146 26.6263 71.8891 26.793C72.0661 26.957 72.1547 27.1536 72.1547 27.3828C72.1547 27.6146 72.0661 27.8138 71.8891 27.9805C71.7146 28.1445 71.5036 28.2266 71.2562 28.2266ZM76.1283 35.1172C75.5137 35.1172 74.9851 34.987 74.5424 34.7266C74.1023 34.4635 73.7637 34.099 73.5268 33.6328C73.2924 33.1667 73.1752 32.6302 73.1752 32.0234C73.1752 31.4089 73.2937 30.8698 73.5307 30.4062C73.7702 29.9401 74.1101 29.5768 74.5502 29.3164C74.9903 29.0534 75.5137 28.9219 76.1205 28.9219C76.6439 28.9219 77.1023 29.0169 77.4955 29.207C77.8887 29.3971 78.1999 29.6641 78.4291 30.0078C78.6583 30.3516 78.7846 30.7552 78.808 31.2188H77.2377C77.1934 30.9193 77.0762 30.6784 76.8861 30.4961C76.6986 30.3112 76.4525 30.2187 76.1479 30.2187C75.89 30.2187 75.6648 30.2891 75.4721 30.4297C75.282 30.5677 75.1335 30.7695 75.0268 31.0352C74.92 31.3008 74.8666 31.6224 74.8666 32C74.8666 32.3828 74.9187 32.7083 75.0229 32.9766C75.1296 33.2448 75.2794 33.4492 75.4721 33.5898C75.6648 33.7305 75.89 33.8008 76.1479 33.8008C76.338 33.8008 76.5085 33.7617 76.6596 33.6836C76.8132 33.6055 76.9395 33.4922 77.0385 33.3437C77.14 33.1927 77.2064 33.0117 77.2377 32.8008H78.808C78.782 33.2591 78.657 33.6628 78.433 34.0117C78.2117 34.3581 77.9057 34.6289 77.515 34.8242C77.1244 35.0195 76.6622 35.1172 76.1283 35.1172ZM81.3812 33.2734L81.3852 31.2773H81.6273L83.5492 29H85.4594L82.8773 32.0156H82.4828L81.3812 33.2734ZM79.8734 35V27H81.5375V35H79.8734ZM83.6234 35L81.8578 32.3867L82.9672 31.2109L85.5727 35H83.6234ZM88.7631 35.1172C88.1459 35.1172 87.6146 34.9922 87.1693 34.7422C86.7266 34.4896 86.3855 34.1328 86.1459 33.6719C85.9063 33.2083 85.7865 32.6602 85.7865 32.0273C85.7865 31.4102 85.9063 30.8685 86.1459 30.4023C86.3855 29.9362 86.7227 29.5729 87.1576 29.3125C87.5951 29.0521 88.1081 28.9219 88.6967 28.9219C89.0925 28.9219 89.461 28.9857 89.8021 29.1133C90.1459 29.2383 90.4454 29.4271 90.7006 29.6797C90.9584 29.9323 91.1589 30.25 91.3021 30.6328C91.4454 31.013 91.517 31.4583 91.517 31.9687V32.4258H86.4506V31.3945H89.9506C89.9506 31.1549 89.8985 30.9427 89.7943 30.7578C89.6902 30.5729 89.5456 30.4284 89.3607 30.3242C89.1784 30.2174 88.9662 30.1641 88.724 30.1641C88.4714 30.1641 88.2475 30.2227 88.0521 30.3398C87.8594 30.4544 87.7084 30.6094 87.599 30.8047C87.4896 30.9974 87.4337 31.2122 87.4311 31.4492V32.4297C87.4311 32.7266 87.4857 32.9831 87.5951 33.1992C87.7071 33.4154 87.8646 33.582 88.0678 33.6992C88.2709 33.8164 88.5118 33.875 88.7904 33.875C88.9753 33.875 89.1446 33.849 89.2982 33.7969C89.4519 33.7448 89.5834 33.6667 89.6928 33.5625C89.8021 33.4583 89.8855 33.3307 89.9428 33.1797L91.4818 33.2812C91.4037 33.651 91.2436 33.974 91.0014 34.25C90.7618 34.5234 90.4519 34.737 90.0717 34.8906C89.6941 35.0417 89.2579 35.1172 88.7631 35.1172ZM95.7943 29V30.25H92.1811V29H95.7943ZM93.0014 27.5625H94.6654V33.1562C94.6654 33.3099 94.6889 33.4297 94.7357 33.5156C94.7826 33.599 94.8477 33.6576 94.9311 33.6914C95.017 33.7253 95.1159 33.7422 95.2279 33.7422C95.3061 33.7422 95.3842 33.7357 95.4623 33.7227C95.5404 33.707 95.6003 33.6953 95.642 33.6875L95.9037 34.9258C95.8204 34.9518 95.7032 34.9818 95.5521 35.0156C95.4011 35.0521 95.2175 35.0742 95.0014 35.082C94.6003 35.0977 94.2488 35.0443 93.9467 34.9219C93.6472 34.7995 93.4141 34.6094 93.2475 34.3516C93.0808 34.0937 92.9988 33.7682 93.0014 33.375V27.5625ZM101.795 30.7109L100.272 30.8047C100.246 30.6745 100.19 30.5573 100.104 30.4531C100.018 30.3464 99.9047 30.2617 99.7641 30.1992C99.626 30.1341 99.4607 30.1016 99.268 30.1016C99.0102 30.1016 98.7927 30.1562 98.6156 30.2656C98.4385 30.3724 98.35 30.5156 98.35 30.6953C98.35 30.8385 98.4073 30.9596 98.5219 31.0586C98.6365 31.1576 98.8331 31.237 99.1117 31.2969L100.198 31.5156C100.781 31.6354 101.216 31.8281 101.502 32.0937C101.789 32.3594 101.932 32.7083 101.932 33.1406C101.932 33.5339 101.816 33.8789 101.584 34.1758C101.355 34.4727 101.04 34.7044 100.639 34.8711C100.241 35.0352 99.781 35.1172 99.2602 35.1172C98.4659 35.1172 97.8331 34.9518 97.3617 34.6211C96.893 34.2878 96.6182 33.8346 96.5375 33.2617L98.1742 33.1758C98.2237 33.418 98.3435 33.6029 98.5336 33.7305C98.7237 33.8555 98.9672 33.918 99.2641 33.918C99.5557 33.918 99.7901 33.862 99.9672 33.75C100.147 33.6354 100.238 33.4883 100.241 33.3086C100.238 33.1576 100.174 33.0339 100.049 32.9375C99.9242 32.8385 99.7315 32.763 99.4711 32.7109L98.432 32.5039C97.8461 32.3867 97.4099 32.1836 97.1234 31.8945C96.8396 31.6055 96.6977 31.237 96.6977 30.7891C96.6977 30.4036 96.8018 30.0716 97.0102 29.793C97.2211 29.5143 97.5167 29.2995 97.8969 29.1484C98.2797 28.9974 98.7276 28.9219 99.2406 28.9219C99.9984 28.9219 100.595 29.082 101.03 29.4023C101.467 29.7227 101.722 30.1589 101.795 30.7109Z" fill="black"/>
</svg>
