<svg width="507" height="87" viewBox="0 0 507 87" fill="none" xmlns="http://www.w3.org/2000/svg">
<path d="M17.1366 29.0256C19.4186 29.0256 21.2686 27.1593 21.2686 24.8571C21.2686 22.555 19.4186 20.6887 17.1366 20.6887C14.8545 20.6887 13.0045 22.555 13.0045 24.8571C13.0045 27.1593 14.8545 29.0256 17.1366 29.0256Z" fill="#4F87A0"/>
<path d="M20.5589 16.5714C22.8409 16.5714 24.6909 14.7051 24.6909 12.403C24.6909 10.1008 22.8409 8.23456 20.5589 8.23456C18.2768 8.23456 16.4268 10.1008 16.4268 12.403C16.4268 14.7051 18.2768 16.5714 20.5589 16.5714Z" fill="#4F87A0"/>
<path d="M35.8956 12.6076C38.1777 12.6076 40.0276 10.7413 40.0276 8.43912C40.0276 6.13696 38.1777 4.27069 35.8956 4.27069C33.6135 4.27069 31.7635 6.13696 31.7635 8.43912C31.7635 10.7413 33.6135 12.6076 35.8956 12.6076Z" fill="#4F87A0"/>
<path d="M46.4919 10.4083C48.774 10.4083 50.624 8.542 50.624 6.23984C50.624 3.93768 48.774 2.07141 46.4919 2.07141C44.2098 2.07141 42.3599 3.93768 42.3599 6.23984C42.3599 8.542 44.2098 10.4083 46.4919 10.4083Z" fill="#4F87A0"/>
<path d="M56.8094 10.4083C59.0914 10.4083 60.9414 8.542 60.9414 6.23984C60.9414 3.93768 59.0914 2.07141 56.8094 2.07141C54.5273 2.07141 52.6773 3.93768 52.6773 6.23984C52.6773 8.542 54.5273 10.4083 56.8094 10.4083Z" fill="#4F87A0"/>
<path d="M65.0988 15.8298C67.3809 15.8298 69.2308 13.9635 69.2308 11.6613C69.2308 9.35919 67.3809 7.49292 65.0988 7.49292C62.8167 7.49292 60.9667 9.35919 60.9667 11.6613C60.9667 13.9635 62.8167 15.8298 65.0988 15.8298Z" fill="#4F87A0"/>
<path d="M76.2782 26.9797C78.5602 26.9797 80.4102 25.1134 80.4102 22.8113C80.4102 20.5091 78.5602 18.6428 76.2782 18.6428C73.9961 18.6428 72.1461 20.5091 72.1461 22.8113C72.1461 25.1134 73.9961 26.9797 76.2782 26.9797Z" fill="#4F87A0"/>
<path d="M81.8044 39.1525C84.0865 39.1525 85.9365 37.2863 85.9365 34.9841C85.9365 32.6819 84.0865 30.8157 81.8044 30.8157C79.5223 30.8157 77.6724 32.6819 77.6724 34.9841C77.6724 37.2863 79.5223 39.1525 81.8044 39.1525Z" fill="#4F87A0"/>
<path d="M77.7738 48.1543C80.0558 48.1543 81.9058 46.288 81.9058 43.9859C81.9058 41.6837 80.0558 39.8174 77.7738 39.8174C75.4917 39.8174 73.6417 41.6837 73.6417 43.9859C73.6417 46.288 75.4917 48.1543 77.7738 48.1543Z" fill="#4F87A0"/>
<path d="M83.5282 56.7725C85.8103 56.7725 87.6603 54.9062 87.6603 52.604C87.6603 50.3019 85.8103 48.4356 83.5282 48.4356C81.2462 48.4356 79.3962 50.3019 79.3962 52.604C79.3962 54.9062 81.2462 56.7725 83.5282 56.7725Z" fill="#4F87A0"/>
<path d="M78.8131 65.8254C81.0952 65.8254 82.9452 63.9591 82.9452 61.657C82.9452 59.3548 81.0952 57.4885 78.8131 57.4885C76.5311 57.4885 74.6811 59.3548 74.6811 61.657C74.6811 63.9591 76.5311 65.8254 78.8131 65.8254Z" fill="#4F87A0"/>
<path d="M70.904 75.2619C73.186 75.2619 75.036 73.3956 75.036 71.0934C75.036 68.7913 73.186 66.925 70.904 66.925C68.6219 66.925 66.7719 68.7913 66.7719 71.0934C66.7719 73.3956 68.6219 75.2619 70.904 75.2619Z" fill="#4F87A0"/>
<path d="M57.1136 82.1922C59.3956 82.1922 61.2456 80.3259 61.2456 78.0238C61.2456 75.7216 59.3956 73.8553 57.1136 73.8553C54.8315 73.8553 52.9815 75.7216 52.9815 78.0238C52.9815 80.3259 54.8315 82.1922 57.1136 82.1922Z" fill="#4F87A0"/>
<path d="M44.9455 84.903C47.2276 84.903 49.0776 83.0367 49.0776 80.7345C49.0776 78.4324 47.2276 76.5661 44.9455 76.5661C42.6635 76.5661 40.8135 78.4324 40.8135 80.7345C40.8135 83.0367 42.6635 84.903 44.9455 84.903Z" fill="#4F87A0"/>
<path d="M34.5267 82.3457C36.8088 82.3457 38.6588 80.4794 38.6588 78.1772C38.6588 75.8751 36.8088 74.0088 34.5267 74.0088C32.2446 74.0088 30.3947 75.8751 30.3947 78.1772C30.3947 80.4794 32.2446 82.3457 34.5267 82.3457Z" fill="#4F87A0"/>
<path d="M18.9872 77.9471C21.2692 77.9471 23.1192 76.0808 23.1192 73.7787C23.1192 71.4765 21.2692 69.6102 18.9872 69.6102C16.7051 69.6102 14.8551 71.4765 14.8551 73.7787C14.8551 76.0808 16.7051 77.9471 18.9872 77.9471Z" fill="#4F87A0"/>
<path d="M14.196 67.4365C16.4781 67.4365 18.3281 65.5702 18.3281 63.2681C18.3281 60.9659 16.4781 59.0996 14.196 59.0996C11.9139 59.0996 10.064 60.9659 10.064 63.2681C10.064 65.5702 11.9139 67.4365 14.196 67.4365Z" fill="#4F87A0"/>
<path d="M7.55429 51.3765C9.83636 51.3765 11.6863 49.5103 11.6863 47.2081C11.6863 44.9059 9.83636 43.0397 7.55429 43.0397C5.27222 43.0397 3.42224 44.9059 3.42224 47.2081C3.42224 49.5103 5.27222 51.3765 7.55429 51.3765Z" fill="#4F87A0"/>
<path d="M8.87247 34.9586C11.1545 34.9586 13.0045 33.0923 13.0045 30.7901C13.0045 28.488 11.1545 26.6217 8.87247 26.6217C6.5904 26.6217 4.74042 28.488 4.74042 30.7901C4.74042 33.0923 6.5904 34.9586 8.87247 34.9586Z" fill="#4F87A0"/>
<path d="M66.2395 59.1508C67.8636 59.1508 69.1801 57.8226 69.1801 56.1843C69.1801 54.5459 67.8636 53.2178 66.2395 53.2178C64.6155 53.2178 63.299 54.5459 63.299 56.1843C63.299 57.8226 64.6155 59.1508 66.2395 59.1508Z" fill="#4F87A0"/>
<path d="M52.8547 69.4056C54.4788 69.4056 55.7953 68.0775 55.7953 66.4391C55.7953 64.8008 54.4788 63.4727 52.8547 63.4727C51.2307 63.4727 49.9141 64.8008 49.9141 66.4391C49.9141 68.0775 51.2307 69.4056 52.8547 69.4056Z" fill="#4F87A0"/>
<path d="M63.2989 66.8739C64.923 66.8739 66.2395 65.5457 66.2395 63.9074C66.2395 62.269 64.923 60.9409 63.2989 60.9409C61.6749 60.9409 60.3583 62.269 60.3583 63.9074C60.3583 65.5457 61.6749 66.8739 63.2989 66.8739Z" fill="#4F87A0"/>
<path d="M29.7102 66.2346C31.3342 66.2346 32.6508 64.9064 32.6508 63.2681C32.6508 61.6297 31.3342 60.3016 29.7102 60.3016C28.0861 60.3016 26.7696 61.6297 26.7696 63.2681C26.7696 64.9064 28.0861 66.2346 29.7102 66.2346Z" fill="#4F87A0"/>
<path d="M25.4007 58.537C27.0247 58.537 28.3413 57.2089 28.3413 55.5705C28.3413 53.9322 27.0247 52.604 25.4007 52.604C23.7766 52.604 22.4601 53.9322 22.4601 55.5705C22.4601 57.2089 23.7766 58.537 25.4007 58.537Z" fill="#4F87A0"/>
<path d="M21.294 51.2742C22.918 51.2742 24.2346 49.9461 24.2346 48.3077C24.2346 46.6694 22.918 45.3412 21.294 45.3412C19.6699 45.3412 18.3534 46.6694 18.3534 48.3077C18.3534 49.9461 19.6699 51.2742 21.294 51.2742Z" fill="#4F87A0"/>
<path d="M30.6988 30.7901C32.3229 30.7901 33.6394 29.462 33.6394 27.8236C33.6394 26.1853 32.3229 24.8571 30.6988 24.8571C29.0748 24.8571 27.7582 26.1853 27.7582 27.8236C27.7582 29.462 29.0748 30.7901 30.6988 30.7901Z" fill="#4F87A0"/>
<path d="M38.8362 24.5758C40.4602 24.5758 41.7768 23.2477 41.7768 21.6093C41.7768 19.971 40.4602 18.6428 38.8362 18.6428C37.2121 18.6428 35.8956 19.971 35.8956 21.6093C35.8956 23.2477 37.2121 24.5758 38.8362 24.5758Z" fill="#4F87A0"/>
<path d="M57.8234 27.5423C59.4474 27.5423 60.7639 26.2142 60.7639 24.5758C60.7639 22.9375 59.4474 21.6093 57.8234 21.6093C56.1993 21.6093 54.8828 22.9375 54.8828 24.5758C54.8828 26.2142 56.1993 27.5423 57.8234 27.5423Z" fill="#4F87A0"/>
<path d="M50.1169 59.7901C51.2649 59.7901 52.1956 58.8512 52.1956 57.6931C52.1956 56.535 51.2649 55.5961 50.1169 55.5961C48.9689 55.5961 48.0382 56.535 48.0382 57.6931C48.0382 58.8512 48.9689 59.7901 50.1169 59.7901Z" fill="#4F87A0"/>
<path d="M55.3137 57.6931C56.4617 57.6931 57.3924 56.7542 57.3924 55.5961C57.3924 54.4379 56.4617 53.4991 55.3137 53.4991C54.1657 53.4991 53.235 54.4379 53.235 55.5961C53.235 56.7542 54.1657 57.6931 55.3137 57.6931Z" fill="#4F87A0"/>
<path d="M71.5631 39.1526C72.7111 39.1526 73.6418 38.2137 73.6418 37.0556C73.6418 35.8974 72.7111 34.9586 71.5631 34.9586C70.415 34.9586 69.4844 35.8974 69.4844 37.0556C69.4844 38.2137 70.415 39.1526 71.5631 39.1526Z" fill="#4F87A0"/>
<path d="M65.7832 32.0176C66.9313 32.0176 67.8619 31.0788 67.8619 29.9206C67.8619 28.7625 66.9313 27.8236 65.7832 27.8236C64.6352 27.8236 63.7045 28.7625 63.7045 29.9206C63.7045 31.0788 64.6352 32.0176 65.7832 32.0176Z" fill="#4F87A0"/>
<path d="M46.4919 20.7398C47.6399 20.7398 48.5706 19.801 48.5706 18.6428C48.5706 17.4847 47.6399 16.5458 46.4919 16.5458C45.3439 16.5458 44.4132 17.4847 44.4132 18.6428C44.4132 19.801 45.3439 20.7398 46.4919 20.7398Z" fill="#4F87A0"/>
<path d="M25.9837 22.9135C27.1318 22.9135 28.0624 21.9747 28.0624 20.8165C28.0624 19.6584 27.1318 18.7195 25.9837 18.7195C24.8357 18.7195 23.905 19.6584 23.905 20.8165C23.905 21.9747 24.8357 22.9135 25.9837 22.9135Z" fill="#4F87A0"/>
<path d="M27.4541 49.5352C28.6021 49.5352 29.5328 48.5964 29.5328 47.4382C29.5328 46.2801 28.6021 45.3412 27.4541 45.3412C26.306 45.3412 25.3754 46.2801 25.3754 47.4382C25.3754 48.5964 26.306 49.5352 27.4541 49.5352Z" fill="#4F87A0"/>
<path d="M63.7046 41.5309C64.8526 41.5309 65.7833 40.592 65.7833 39.4339C65.7833 38.2757 64.8526 37.3369 63.7046 37.3369C62.5565 37.3369 61.6259 38.2757 61.6259 39.4339C61.6259 40.592 62.5565 41.5309 63.7046 41.5309Z" fill="#4F87A0"/>
<path d="M8.87247 34.9586C11.1545 34.9586 13.0045 33.0923 13.0045 30.7901C13.0045 28.488 11.1545 26.6217 8.87247 26.6217C6.5904 26.6217 4.74042 28.488 4.74042 30.7901C4.74042 33.0923 6.5904 34.9586 8.87247 34.9586Z" fill="#4F87A0"/>
<path d="M44.9455 49.4585C48.3196 49.4585 51.0549 46.6992 51.0549 43.2954C51.0549 39.8916 48.3196 37.1323 44.9455 37.1323C41.5714 37.1323 38.8362 39.8916 38.8362 43.2954C38.8362 46.6992 41.5714 49.4585 44.9455 49.4585Z" fill="#4F87A0"/>
<path d="M21.294 41.0961C22.918 41.0961 24.2346 39.768 24.2346 38.1296C24.2346 36.4913 22.918 35.1631 21.294 35.1631C19.6699 35.1631 18.3534 36.4913 18.3534 38.1296C18.3534 39.768 19.6699 41.0961 21.294 41.0961Z" fill="#4F87A0"/>
<path d="M39.5967 65.5696C40.7447 65.5696 41.6754 64.6308 41.6754 63.4726C41.6754 62.3145 40.7447 61.3756 39.5967 61.3756C38.4487 61.3756 37.518 62.3145 37.518 63.4726C37.518 64.6308 38.4487 65.5696 39.5967 65.5696Z" fill="#4F87A0"/>
<path d="M129.082 24.806V47.6684C129.082 56.3121 132.885 59.9947 138.005 59.9947C143.684 59.9947 147.309 56.2098 147.309 47.6684V24.806H152.303V47.3104C152.303 59.1763 146.117 64.0352 137.828 64.0352C129.995 64.0352 124.088 59.5088 124.088 47.5405V24.806H129.082Z" fill="#4F87A0"/>
<path d="M181.81 63.4215L176.943 54.88C174.966 51.6067 173.698 49.4841 172.507 47.2592H172.405C171.315 49.4841 170.251 51.5555 168.248 54.9312L163.66 63.4215H157.981L169.668 43.8836L158.437 24.806H164.167L169.211 33.8589C170.631 36.3906 171.721 38.3342 172.735 40.38H172.912C174.002 38.0785 174.966 36.3139 176.385 33.8589L181.582 24.806H187.26L175.625 43.6023L187.539 63.4215H181.81Z" fill="#4F87A0"/>
<path d="M232.079 62.1429C230.254 63.0635 226.629 63.9841 221.965 63.9841C211.166 63.9841 203.054 57.105 203.054 44.4462C203.054 32.3501 211.166 24.1667 223.029 24.1667C227.795 24.1667 230.812 25.1896 232.105 25.8801L230.913 29.9462C229.037 29.0256 226.376 28.3351 223.181 28.3351C214.208 28.3351 208.25 34.1147 208.25 44.2672C208.25 53.7293 213.65 59.7901 222.953 59.7901C225.97 59.7901 229.037 59.1508 231.015 58.179L232.079 62.1429Z" fill="#4F87A0"/>
<path d="M262.322 49.3307C262.322 59.5855 255.275 64.0608 248.633 64.0608C241.205 64.0608 235.451 58.5626 235.451 49.791C235.451 40.5079 241.459 35.0609 249.089 35.0609C256.998 35.0609 262.322 40.8404 262.322 49.3307ZM240.521 49.612C240.521 55.6728 243.994 60.276 248.861 60.276C253.627 60.276 257.201 55.7496 257.201 49.5097C257.201 44.8042 254.869 38.8457 248.962 38.8457C243.081 38.8457 240.521 44.3439 240.521 49.612Z" fill="#4F87A0"/>
<path d="M268.634 44.7275C268.634 41.1728 268.533 38.3086 268.406 35.6746H272.893L273.121 40.4312H273.222C275.276 37.0556 278.495 35.0353 282.982 35.0353C289.624 35.0353 294.618 40.7125 294.618 49.1261C294.618 59.0997 288.61 64.0097 282.12 64.0097C278.495 64.0097 275.301 62.3986 273.653 59.6623H273.552V74.7249H268.609V44.7275H268.634ZM273.577 52.1182C273.577 52.8598 273.679 53.5503 273.805 54.1896C274.718 57.6931 277.735 60.097 281.309 60.097C286.582 60.097 289.649 55.7496 289.649 49.3818C289.649 43.8325 286.759 39.0758 281.461 39.0758C278.064 39.0758 274.87 41.5309 273.907 45.3157C273.729 45.955 273.577 46.6967 273.577 47.3871V52.1182Z" fill="#4F87A0"/>
<path d="M303.718 50.4559C303.82 57.284 308.155 60.0714 313.149 60.0714C316.723 60.0714 318.878 59.4321 320.754 58.6393L321.615 62.2452C319.866 63.0379 316.85 63.9586 312.464 63.9586C303.997 63.9586 298.953 58.3325 298.953 49.97C298.953 41.6076 303.845 35.0097 311.83 35.0097C320.804 35.0097 323.187 42.963 323.187 48.0776C323.187 49.1005 323.086 49.9189 323.01 50.4303H303.718V50.4559ZM318.371 46.8501C318.421 43.6534 317.052 38.6667 311.45 38.6667C306.405 38.6667 304.175 43.3721 303.794 46.8501H318.371Z" fill="#4F87A0"/>
<path d="M329.373 43.1931C329.373 40.3289 329.322 37.9762 329.144 35.7002H333.581L333.86 40.2778H333.961C335.33 37.6437 338.499 35.0609 343.036 35.0609C346.839 35.0609 352.745 37.3624 352.745 46.8501V63.4215H347.751V47.4383C347.751 42.963 346.104 39.2549 341.388 39.2549C338.093 39.2549 335.533 41.6076 334.696 44.4206C334.468 45.06 334.367 45.9039 334.367 46.7734V63.4215H329.373V43.1931Z" fill="#4F87A0"/>
<path d="M360.883 22.7346H365.877V40.022H365.978C366.764 38.5899 368.031 37.3369 369.552 36.4674C371.023 35.5979 372.797 35.0353 374.673 35.0353C378.374 35.0353 384.281 37.3368 384.281 46.9012V63.4215H379.287V47.4894C379.287 43.0141 377.639 39.2293 372.924 39.2293C369.679 39.2293 367.144 41.5309 366.231 44.2672C365.953 44.9577 365.902 45.6993 365.902 46.6711V63.4215H360.908V22.7346H360.883Z" fill="#4F87A0"/>
<path d="M407.628 63.4215L407.222 59.918H407.045C405.524 62.0917 402.558 64.0353 398.654 64.0353C393.077 64.0353 390.238 60.0714 390.238 56.082C390.238 49.3818 396.144 45.7249 406.766 45.776V45.2134C406.766 42.9118 406.132 38.7945 400.53 38.7945C397.97 38.7945 395.308 39.5873 393.381 40.866L392.241 37.5415C394.522 36.0582 397.818 35.0864 401.265 35.0864C409.656 35.0864 411.709 40.866 411.709 46.4153V56.7725C411.709 59.1764 411.811 61.5291 412.166 63.4215H407.628ZM406.868 49.254C401.417 49.1517 395.232 50.1235 395.232 55.4938C395.232 58.7672 397.387 60.3016 399.947 60.3016C403.521 60.3016 405.803 58 406.589 55.6728C406.766 55.1614 406.868 54.5732 406.868 54.0617V49.254Z" fill="#4F87A0"/>
<path d="M443.448 35.7002C443.346 37.6949 443.219 39.9453 443.219 43.321V59.4065C443.219 65.7743 441.977 69.6614 439.29 72.0653C436.628 74.597 432.75 75.3898 429.302 75.3898C426.007 75.3898 422.382 74.597 420.151 73.0882L421.393 69.2522C423.218 70.403 426.058 71.4259 429.454 71.4259C434.575 71.4259 438.302 68.7407 438.302 61.7337V58.6393H438.2C436.679 61.2222 433.713 63.2681 429.454 63.2681C422.635 63.2681 417.768 57.4374 417.768 49.7399C417.768 40.3545 423.852 35.0097 430.139 35.0097C434.905 35.0097 437.516 37.5415 438.707 39.8175H438.809L439.037 35.6235H443.448V35.7002ZM438.276 46.6199C438.276 45.7504 438.226 45.0088 437.997 44.3183C437.085 41.403 434.651 38.9991 431.026 38.9991C426.26 38.9991 422.838 43.0653 422.838 49.4841C422.838 54.9312 425.576 59.4577 430.95 59.4577C434.017 59.4577 436.806 57.5141 437.871 54.2919C438.149 53.4224 438.276 52.4506 438.276 51.6067V46.6199Z" fill="#4F87A0"/>
<path d="M454.297 50.4559C454.399 57.284 458.734 60.0714 463.728 60.0714C467.302 60.0714 469.457 59.4321 471.333 58.6393L472.194 62.2452C470.445 63.0379 467.429 63.9586 463.043 63.9586C454.576 63.9586 449.532 58.3325 449.532 49.97C449.532 41.6076 454.424 35.0097 462.409 35.0097C471.383 35.0097 473.766 42.963 473.766 48.0776C473.766 49.1005 473.665 49.9189 473.589 50.4303H454.297V50.4559ZM468.924 46.8501C468.975 43.6534 467.606 38.6667 462.004 38.6667C456.959 38.6667 454.728 43.3721 454.348 46.8501H468.924Z" fill="#4F87A0"/>
<path d="M479.952 43.1931C479.952 40.3289 479.901 37.9762 479.723 35.7002H484.16L484.439 40.2778H484.54C485.909 37.6437 489.078 35.0609 493.615 35.0609C497.418 35.0609 503.324 37.3624 503.324 46.8501V63.4215H498.33V47.4383C498.33 42.963 496.683 39.2549 491.967 39.2549C488.672 39.2549 486.112 41.6076 485.275 44.4206C485.047 45.06 484.946 45.9039 484.946 46.7734V63.4215H479.952V43.1931Z" fill="#4F87A0"/>
</svg>
