<svg width="226" height="100" viewBox="0 0 226 100" fill="none" xmlns="http://www.w3.org/2000/svg">
<mask id="path-1-inside-1_224_5977" fill="white">
<path fill-rule="evenodd" clip-rule="evenodd" d="M181.843 9.95975C180.904 9.01406 179.627 8.48218 178.294 8.48218H13.4197C10.6582 8.48218 8.41968 10.7208 8.41968 13.4822V61.7983C8.41968 63.118 8.9414 64.3841 9.87109 65.3207L42.828 98.5225C43.7668 99.4682 45.0441 100 46.3766 100H221C223.761 100 226 97.7615 226 95V56.5053C226 55.1856 225.478 53.9195 224.549 52.9829L181.843 9.95975Z"/>
</mask>
<path fill-rule="evenodd" clip-rule="evenodd" d="M181.843 9.95975C180.904 9.01406 179.627 8.48218 178.294 8.48218H13.4197C10.6582 8.48218 8.41968 10.7208 8.41968 13.4822V61.7983C8.41968 63.118 8.9414 64.3841 9.87109 65.3207L42.828 98.5225C43.7668 99.4682 45.0441 100 46.3766 100H221C223.761 100 226 97.7615 226 95V56.5053C226 55.1856 225.478 53.9195 224.549 52.9829L181.843 9.95975Z" fill="#E8A014"/>
<path d="M224.549 52.9829L225.968 51.5739L224.549 52.9829ZM9.87109 65.3207L8.45165 66.7297L9.87109 65.3207ZM181.843 9.95975L183.262 8.55078L181.843 9.95975ZM178.294 6.48218H13.4197V10.4822H178.294V6.48218ZM6.41968 13.4822V61.7983H10.4197V13.4822H6.41968ZM8.45165 66.7297L41.4086 99.9314L44.2475 97.1135L11.2905 63.9118L8.45165 66.7297ZM46.3766 102H221V98H46.3766V102ZM228 95V56.5053H224V95H228ZM225.968 51.5739L183.262 8.55078L180.423 11.3687L223.129 54.3918L225.968 51.5739ZM228 56.5053C228 54.6578 227.27 52.8851 225.968 51.5739L223.129 54.3918C223.687 54.9538 224 55.7135 224 56.5053H228ZM221 102C224.866 102 228 98.866 228 95H224C224 96.6569 222.657 98 221 98V102ZM41.4086 99.9314C42.7228 101.255 44.5111 102 46.3766 102V98C45.5771 98 44.8107 97.6809 44.2475 97.1135L41.4086 99.9314ZM6.41968 61.7983C6.41968 63.6458 7.15008 65.4185 8.45165 66.7297L11.2905 63.9118C10.7327 63.3498 10.4197 62.5901 10.4197 61.7983H6.41968ZM13.4197 6.48218C9.55368 6.48218 6.41968 9.61619 6.41968 13.4822H10.4197C10.4197 11.8253 11.7628 10.4822 13.4197 10.4822V6.48218ZM178.294 10.4822C179.094 10.4822 179.86 10.8013 180.423 11.3687L183.262 8.55078C181.948 7.22681 180.16 6.48218 178.294 6.48218V10.4822Z" fill="black" mask="url(#path-1-inside-1_224_5977)"/>
<mask id="path-3-inside-2_224_5977" fill="white">
<path fill-rule="evenodd" clip-rule="evenodd" d="M173.423 1.47757C172.484 0.531878 171.207 0 169.874 0H4.99999C2.23857 0 0 2.23858 0 5V53.3161C0 54.6358 0.521718 55.902 1.45141 56.8386L34.4084 90.0403C35.3471 90.986 36.6245 91.5179 37.957 91.5179H212.58C215.342 91.5179 217.58 89.2793 217.58 86.5179V48.0231C217.58 46.7034 217.059 45.4373 216.129 44.5007L173.423 1.47757Z"/>
</mask>
<path fill-rule="evenodd" clip-rule="evenodd" d="M173.423 1.47757C172.484 0.531878 171.207 0 169.874 0H4.99999C2.23857 0 0 2.23858 0 5V53.3161C0 54.6358 0.521718 55.902 1.45141 56.8386L34.4084 90.0403C35.3471 90.986 36.6245 91.5179 37.957 91.5179H212.58C215.342 91.5179 217.58 89.2793 217.58 86.5179V48.0231C217.58 46.7034 217.059 45.4373 216.129 44.5007L173.423 1.47757Z" fill="#F7ED1D"/>
<path d="M216.129 44.5007L214.71 45.9096L216.129 44.5007ZM34.4084 90.0403L32.9889 91.4493L34.4084 90.0403ZM1.45141 56.8386L0.0319725 58.2475L1.45141 56.8386ZM173.423 1.47757L174.842 0.0686018L173.423 1.47757ZM169.874 -2H4.99999V2H169.874V-2ZM-2 5V53.3161H2V5H-2ZM0.0319725 58.2475L32.9889 91.4493L35.8278 88.6313L2.87085 55.4296L0.0319725 58.2475ZM37.957 93.5179H212.58V89.5179H37.957V93.5179ZM219.58 86.5179V48.0231H215.58V86.5179H219.58ZM217.548 43.0917L174.842 0.0686018L172.004 2.88654L214.71 45.9096L217.548 43.0917ZM219.58 48.0231C219.58 46.1756 218.85 44.4029 217.548 43.0917L214.71 45.9096C215.267 46.4716 215.58 47.2313 215.58 48.0231H219.58ZM212.58 93.5179C216.446 93.5179 219.58 90.3839 219.58 86.5179H215.58C215.58 88.1747 214.237 89.5179 212.58 89.5179V93.5179ZM32.9889 91.4493C34.3031 92.7732 36.0915 93.5179 37.957 93.5179V89.5179C37.1575 89.5179 36.391 89.1987 35.8278 88.6313L32.9889 91.4493ZM-2 53.3161C-2 55.1637 -1.26959 56.9363 0.0319725 58.2475L2.87085 55.4296C2.31303 54.8676 2 54.1079 2 53.3161H-2ZM4.99999 -2C1.134 -2 -2 1.13401 -2 5H2C2 3.34314 3.34314 2 4.99999 2V-2ZM169.874 2C170.674 2 171.44 2.31913 172.004 2.88654L174.842 0.0686018C173.528 -1.25537 171.74 -2 169.874 -2V2Z" fill="black" mask="url(#path-3-inside-2_224_5977)"/>
<path d="M66.8185 42.011C66.7418 41.2376 66.4126 40.6367 65.8309 40.2085C65.2492 39.7802 64.4598 39.5661 63.4627 39.5661C62.7851 39.5661 62.213 39.6619 61.7464 39.8537C61.2798 40.0391 60.9218 40.2979 60.6725 40.6303C60.4296 40.9627 60.3082 41.3398 60.3082 41.7617C60.2954 42.1133 60.3689 42.4201 60.5287 42.6822C60.6949 42.9442 60.9218 43.1712 61.2095 43.3629C61.4971 43.5483 61.8295 43.7113 62.2066 43.8519C62.5838 43.9862 62.9865 44.1012 63.4147 44.1971L65.1789 44.619C66.0355 44.8107 66.8217 45.0664 67.5376 45.386C68.2535 45.7056 68.8735 46.0987 69.3977 46.5653C69.9218 47.032 70.3277 47.5817 70.6154 48.2145C70.9094 48.8473 71.0596 49.5728 71.066 50.391C71.0596 51.5927 70.7528 52.6346 70.1456 53.5167C69.5447 54.3924 68.6754 55.0732 67.5376 55.5589C66.4062 56.0384 65.0415 56.2781 63.4435 56.2781C61.8583 56.2781 60.4776 56.0352 59.3014 55.5494C58.1317 55.0636 57.2176 54.3445 56.5593 53.392C55.9073 52.4332 55.5653 51.2475 55.5333 49.8349H59.5507C59.5955 50.4933 59.784 51.043 60.1164 51.484C60.4552 51.9187 60.9059 52.2479 61.4684 52.4716C62.0372 52.6889 62.6796 52.7976 63.3956 52.7976C64.0987 52.7976 64.7091 52.6953 65.2269 52.4908C65.751 52.2862 66.1569 52.0018 66.4446 51.6374C66.7322 51.2731 66.876 50.8544 66.876 50.3814C66.876 49.9403 66.745 49.5696 66.4829 49.2692C66.2272 48.9687 65.8501 48.7131 65.3515 48.5021C64.8593 48.2912 64.2553 48.0994 63.5394 47.9268L61.4012 47.3899C59.7457 46.9872 58.4385 46.3576 57.4797 45.5011C56.5209 44.6445 56.0447 43.4908 56.0511 42.0398C56.0447 40.8509 56.3611 39.8121 57.0003 38.9237C57.6459 38.0352 58.5312 37.3416 59.6562 36.843C60.7812 36.3445 62.0596 36.0952 63.4914 36.0952C64.9488 36.0952 66.2208 36.3445 67.3075 36.843C68.4005 37.3416 69.2507 38.0352 69.8579 38.9237C70.4652 39.8121 70.7784 40.8413 70.7975 42.011H66.8185ZM78.0102 36.3636V56H73.8585V36.3636H78.0102ZM94.4465 42.7109C94.3123 42.2443 94.1237 41.832 93.8808 41.4741C93.6379 41.1097 93.3407 40.8029 92.9891 40.5536C92.644 40.2979 92.2476 40.103 91.8002 39.9688C91.3592 39.8345 90.8702 39.7674 90.3332 39.7674C89.3297 39.7674 88.4476 40.0167 87.6869 40.5153C86.9327 41.0138 86.3446 41.7393 85.9227 42.6918C85.5008 43.6378 85.2899 44.7947 85.2899 46.1626C85.2899 47.5305 85.4976 48.6939 85.9131 49.6527C86.3286 50.6115 86.9167 51.3434 87.6773 51.8484C88.438 52.3469 89.3361 52.5962 90.3716 52.5962C91.3112 52.5962 92.1134 52.43 92.7782 52.0977C93.4494 51.7589 93.9607 51.2827 94.3123 50.669C94.6702 50.0554 94.8492 49.3299 94.8492 48.4925L95.693 48.6172H90.6305V45.4915H98.8474V47.9652C98.8474 49.6911 98.4831 51.174 97.7544 52.4141C97.0257 53.6477 96.0222 54.6001 94.7437 55.2713C93.4653 55.9361 92.0016 56.2685 90.3524 56.2685C88.5115 56.2685 86.8943 55.8626 85.5008 55.0508C84.1074 54.2326 83.0207 53.0724 82.2409 51.5703C81.4675 50.0618 81.0807 48.272 81.0807 46.201C81.0807 44.6094 81.3109 43.1903 81.7711 41.9439C82.2377 40.6911 82.8897 39.63 83.7271 38.7607C84.5644 37.8913 85.5392 37.2298 86.6514 36.7759C87.7636 36.3221 88.9685 36.0952 90.2661 36.0952C91.3783 36.0952 92.4138 36.2582 93.3726 36.5842C94.3315 36.9038 95.1816 37.3576 95.9231 37.9457C96.6709 38.5337 97.2814 39.2337 97.7544 40.0455C98.2274 40.8509 98.531 41.7393 98.6653 42.7109H94.4465ZM118.39 36.3636V56H114.804L106.261 43.641H106.118V56H101.966V36.3636H105.609L114.085 48.7131H114.258V36.3636H118.39ZM140.198 36.3636H144.35V49.1158C144.35 50.5476 144.008 51.8004 143.324 52.8743C142.647 53.9482 141.697 54.7855 140.476 55.3864C139.256 55.9808 137.833 56.2781 136.21 56.2781C134.58 56.2781 133.154 55.9808 131.933 55.3864C130.713 54.7855 129.763 53.9482 129.086 52.8743C128.408 51.8004 128.069 50.5476 128.069 49.1158V36.3636H132.221V48.761C132.221 49.5089 132.384 50.1737 132.71 50.7553C133.042 51.337 133.509 51.794 134.11 52.1264C134.711 52.4588 135.411 52.625 136.21 52.625C137.015 52.625 137.715 52.4588 138.31 52.1264C138.91 51.794 139.374 51.337 139.7 50.7553C140.032 50.1737 140.198 49.5089 140.198 48.761V36.3636ZM147.766 56V36.3636H155.513C157.002 36.3636 158.271 36.6481 159.319 37.217C160.368 37.7795 161.167 38.5625 161.716 39.5661C162.273 40.5632 162.551 41.7138 162.551 43.0178C162.551 44.3217 162.269 45.4723 161.707 46.4695C161.144 47.4666 160.329 48.2433 159.262 48.7994C158.201 49.3555 156.916 49.6335 155.407 49.6335H150.47V46.3065H154.736C155.535 46.3065 156.194 46.169 156.711 45.8942C157.236 45.6129 157.625 45.2262 157.881 44.734C158.143 44.2354 158.274 43.6634 158.274 43.0178C158.274 42.3658 158.143 41.7969 157.881 41.3111C157.625 40.8189 157.236 40.4386 156.711 40.1701C156.187 39.8952 155.523 39.7578 154.717 39.7578H151.917V56H147.766Z" fill="black"/>
</svg>
