<svg width="226" height="100" viewBox="0 0 226 100" fill="none" xmlns="http://www.w3.org/2000/svg">
<mask id="path-1-inside-1_224_6001" fill="white">
<path fill-rule="evenodd" clip-rule="evenodd" d="M181.843 9.95975C180.904 9.01406 179.627 8.48218 178.294 8.48218H13.4197C10.6582 8.48218 8.41968 10.7208 8.41968 13.4822V61.7983C8.41968 63.118 8.9414 64.3841 9.87109 65.3207L42.828 98.5225C43.7668 99.4682 45.0441 100 46.3766 100H221C223.761 100 226 97.7615 226 95V56.5053C226 55.1856 225.478 53.9195 224.549 52.9829L181.843 9.95975Z"/>
</mask>
<path fill-rule="evenodd" clip-rule="evenodd" d="M181.843 9.95975C180.904 9.01406 179.627 8.48218 178.294 8.48218H13.4197C10.6582 8.48218 8.41968 10.7208 8.41968 13.4822V61.7983C8.41968 63.118 8.9414 64.3841 9.87109 65.3207L42.828 98.5225C43.7668 99.4682 45.0441 100 46.3766 100H221C223.761 100 226 97.7615 226 95V56.5053C226 55.1856 225.478 53.9195 224.549 52.9829L181.843 9.95975Z" fill="#BB2D00"/>
<path d="M224.549 52.9829L225.968 51.5739L224.549 52.9829ZM9.87109 65.3207L8.45165 66.7297L9.87109 65.3207ZM181.843 9.95975L183.262 8.55078L181.843 9.95975ZM178.294 6.48218H13.4197V10.4822H178.294V6.48218ZM6.41968 13.4822V61.7983H10.4197V13.4822H6.41968ZM8.45165 66.7297L41.4086 99.9314L44.2475 97.1135L11.2905 63.9118L8.45165 66.7297ZM46.3766 102H221V98H46.3766V102ZM228 95V56.5053H224V95H228ZM225.968 51.5739L183.262 8.55078L180.423 11.3687L223.129 54.3918L225.968 51.5739ZM228 56.5053C228 54.6578 227.27 52.8851 225.968 51.5739L223.129 54.3918C223.687 54.9538 224 55.7135 224 56.5053H228ZM221 102C224.866 102 228 98.866 228 95H224C224 96.6569 222.657 98 221 98V102ZM41.4086 99.9314C42.7228 101.255 44.5111 102 46.3766 102V98C45.5771 98 44.8107 97.6809 44.2475 97.1135L41.4086 99.9314ZM6.41968 61.7983C6.41968 63.6458 7.15008 65.4185 8.45165 66.7297L11.2905 63.9118C10.7327 63.3498 10.4197 62.5901 10.4197 61.7983H6.41968ZM13.4197 6.48218C9.55368 6.48218 6.41968 9.61619 6.41968 13.4822H10.4197C10.4197 11.8253 11.7628 10.4822 13.4197 10.4822V6.48218ZM178.294 10.4822C179.094 10.4822 179.86 10.8013 180.423 11.3687L183.262 8.55078C181.948 7.22681 180.16 6.48218 178.294 6.48218V10.4822Z" fill="black" mask="url(#path-1-inside-1_224_6001)"/>
<mask id="path-3-inside-2_224_6001" fill="white">
<path fill-rule="evenodd" clip-rule="evenodd" d="M173.423 1.47757C172.484 0.531878 171.207 0 169.874 0H4.99999C2.23857 0 0 2.23858 0 5V53.3161C0 54.6358 0.521718 55.902 1.45141 56.8386L34.4084 90.0403C35.3471 90.986 36.6245 91.5179 37.957 91.5179H212.58C215.342 91.5179 217.58 89.2793 217.58 86.5179V48.0231C217.58 46.7034 217.059 45.4373 216.129 44.5007L173.423 1.47757Z"/>
</mask>
<path fill-rule="evenodd" clip-rule="evenodd" d="M173.423 1.47757C172.484 0.531878 171.207 0 169.874 0H4.99999C2.23857 0 0 2.23858 0 5V53.3161C0 54.6358 0.521718 55.902 1.45141 56.8386L34.4084 90.0403C35.3471 90.986 36.6245 91.5179 37.957 91.5179H212.58C215.342 91.5179 217.58 89.2793 217.58 86.5179V48.0231C217.58 46.7034 217.059 45.4373 216.129 44.5007L173.423 1.47757Z" fill="#FF8126"/>
<path d="M216.129 44.5007L214.71 45.9096L216.129 44.5007ZM34.4084 90.0403L32.9889 91.4493L34.4084 90.0403ZM1.45141 56.8386L0.0319725 58.2475L1.45141 56.8386ZM173.423 1.47757L174.842 0.0686018L173.423 1.47757ZM169.874 -2H4.99999V2H169.874V-2ZM-2 5V53.3161H2V5H-2ZM0.0319725 58.2475L32.9889 91.4493L35.8278 88.6313L2.87085 55.4296L0.0319725 58.2475ZM37.957 93.5179H212.58V89.5179H37.957V93.5179ZM219.58 86.5179V48.0231H215.58V86.5179H219.58ZM217.548 43.0917L174.842 0.0686018L172.004 2.88654L214.71 45.9096L217.548 43.0917ZM219.58 48.0231C219.58 46.1756 218.85 44.4029 217.548 43.0917L214.71 45.9096C215.267 46.4716 215.58 47.2313 215.58 48.0231H219.58ZM212.58 93.5179C216.446 93.5179 219.58 90.3839 219.58 86.5179H215.58C215.58 88.1747 214.237 89.5179 212.58 89.5179V93.5179ZM32.9889 91.4493C34.3031 92.7732 36.0915 93.5179 37.957 93.5179V89.5179C37.1575 89.5179 36.391 89.1987 35.8278 88.6313L32.9889 91.4493ZM-2 53.3161C-2 55.1637 -1.26959 56.9363 0.0319725 58.2475L2.87085 55.4296C2.31303 54.8676 2 54.1079 2 53.3161H-2ZM4.99999 -2C1.134 -2 -2 1.13401 -2 5H2C2 3.34314 3.34314 2 4.99999 2V-2ZM169.874 2C170.674 2 171.44 2.31913 172.004 2.88654L174.842 0.0686018C173.528 -1.25537 171.74 -2 169.874 -2V2Z" fill="black" mask="url(#path-3-inside-2_224_6001)"/>
<path d="M60.9818 39.7866V36.3636H77.1089V39.7866H71.0972V56H66.9935V39.7866H60.9818ZM79.6881 56V41.2727H83.7726V56H79.6881ZM81.7399 39.3743C81.1327 39.3743 80.6117 39.1729 80.1771 38.7702C79.7488 38.3611 79.5347 37.8722 79.5347 37.3033C79.5347 36.7408 79.7488 36.2582 80.1771 35.8555C80.6117 35.4464 81.1327 35.2418 81.7399 35.2418C82.3472 35.2418 82.8649 35.4464 83.2932 35.8555C83.7278 36.2582 83.9452 36.7408 83.9452 37.3033C83.9452 37.8722 83.7278 38.3611 83.2932 38.7702C82.8649 39.1729 82.3472 39.3743 81.7399 39.3743ZM93.6986 56.2876C92.1901 56.2876 90.8925 55.968 89.8059 55.3288C88.7256 54.6832 87.8947 53.7884 87.313 52.6442C86.7377 51.5 86.4501 50.1832 86.4501 48.6939C86.4501 47.1854 86.7409 45.8622 87.3226 44.7244C87.9106 43.5803 88.7448 42.6886 89.8251 42.0494C90.9053 41.4038 92.1901 41.081 93.6795 41.081C94.9643 41.081 96.0893 41.3143 97.0545 41.7809C98.0197 42.2475 98.7835 42.9027 99.346 43.7464C99.9085 44.5902 100.219 45.581 100.276 46.7188H96.4217C96.313 45.9837 96.0253 45.3924 95.5587 44.945C95.0985 44.4911 94.4945 44.2642 93.7466 44.2642C93.1138 44.2642 92.5609 44.4368 92.0878 44.782C91.6212 45.1207 91.2569 45.6161 90.9948 46.2681C90.7327 46.9201 90.6017 47.7095 90.6017 48.6364C90.6017 49.576 90.7295 50.375 90.9852 51.0334C91.2473 51.6918 91.6148 52.1935 92.0878 52.5387C92.5609 52.8839 93.1138 53.0565 93.7466 53.0565C94.2132 53.0565 94.6319 52.9606 95.0026 52.7688C95.3797 52.5771 95.6898 52.299 95.9327 51.9347C96.182 51.5639 96.3449 51.1197 96.4217 50.6019H100.276C100.212 51.7269 99.9053 52.7177 99.3556 53.5742C98.8123 54.4244 98.0612 55.0891 97.1024 55.5685C96.1436 56.0479 95.009 56.2876 93.6986 56.2876ZM106.592 51.7621L106.602 46.8626H107.196L111.914 41.2727H116.602L110.264 48.6747H109.296L106.592 51.7621ZM102.891 56V36.3636H106.976V56H102.891ZM112.096 56L107.762 49.5856L110.485 46.6996L116.88 56H112.096ZM124.711 56.2876C123.196 56.2876 121.892 55.9808 120.799 55.3672C119.713 54.7472 118.875 53.8714 118.287 52.7401C117.699 51.6023 117.405 50.2567 117.405 48.7035C117.405 47.1886 117.699 45.859 118.287 44.7148C118.875 43.5707 119.703 42.679 120.771 42.0398C121.844 41.4006 123.104 41.081 124.548 41.081C125.52 41.081 126.424 41.2376 127.262 41.5508C128.105 41.8576 128.841 42.321 129.467 42.9411C130.1 43.5611 130.592 44.3409 130.943 45.2805C131.295 46.2138 131.471 47.3068 131.471 48.5597V49.6815H119.035V47.1502H127.626C127.626 46.5621 127.498 46.0412 127.242 45.5874C126.987 45.1335 126.632 44.7788 126.178 44.5231C125.731 44.261 125.21 44.13 124.615 44.13C123.995 44.13 123.446 44.2738 122.966 44.5614C122.493 44.8427 122.122 45.223 121.854 45.7024C121.586 46.1754 121.448 46.7028 121.442 47.2844V49.6911C121.442 50.4197 121.576 51.0494 121.844 51.5799C122.119 52.1104 122.506 52.5195 123.005 52.8072C123.503 53.0948 124.094 53.2386 124.778 53.2386C125.232 53.2386 125.648 53.1747 126.025 53.0469C126.402 52.919 126.725 52.7273 126.993 52.4716C127.262 52.2159 127.466 51.9027 127.607 51.532L131.385 51.7812C131.193 52.6889 130.8 53.4815 130.205 54.1591C129.617 54.8303 128.856 55.3544 127.923 55.7315C126.996 56.1023 125.926 56.2876 124.711 56.2876ZM141.97 41.2727V44.3409H133.101V41.2727H141.97ZM135.114 37.7443H139.199V51.4744C139.199 51.8516 139.256 52.1456 139.371 52.3565C139.486 52.5611 139.646 52.7049 139.851 52.788C140.062 52.8711 140.305 52.9126 140.58 52.9126C140.771 52.9126 140.963 52.8967 141.155 52.8647C141.347 52.8263 141.494 52.7976 141.596 52.7784L142.238 55.8178C142.034 55.8817 141.746 55.9553 141.375 56.0384C141.005 56.1278 140.554 56.1822 140.023 56.2013C139.039 56.2397 138.176 56.1087 137.435 55.8082C136.7 55.5078 136.127 55.0412 135.718 54.4084C135.309 53.7756 135.108 52.9766 135.114 52.0114V37.7443ZM156.699 45.4723L152.96 45.7024C152.896 45.3828 152.759 45.0952 152.548 44.8395C152.337 44.5774 152.059 44.3697 151.714 44.2163C151.375 44.0565 150.969 43.9766 150.496 43.9766C149.863 43.9766 149.329 44.1108 148.895 44.3793C148.46 44.6413 148.243 44.9929 148.243 45.4339C148.243 45.7855 148.383 46.0827 148.665 46.3256C148.946 46.5685 149.428 46.7635 150.112 46.9105L152.778 47.4474C154.21 47.7415 155.277 48.2145 155.98 48.8665C156.683 49.5185 157.035 50.375 157.035 51.4361C157.035 52.4013 156.751 53.2482 156.182 53.9769C155.619 54.7056 154.846 55.2745 153.861 55.6836C152.883 56.0863 151.755 56.2876 150.477 56.2876C148.527 56.2876 146.974 55.8817 145.817 55.07C144.666 54.2518 143.992 53.1396 143.794 51.7333L147.811 51.5224C147.933 52.1168 148.227 52.5707 148.693 52.8839C149.16 53.1907 149.758 53.3441 150.486 53.3441C151.202 53.3441 151.778 53.2067 152.212 52.9318C152.653 52.6506 152.877 52.2894 152.883 51.8484C152.877 51.4776 152.72 51.174 152.414 50.9375C152.107 50.6946 151.634 50.5092 150.995 50.3814L148.444 49.8732C147.006 49.5856 145.935 49.087 145.232 48.3775C144.535 47.668 144.187 46.7635 144.187 45.6641C144.187 44.718 144.443 43.9031 144.954 43.2191C145.472 42.5352 146.197 42.0078 147.131 41.6371C148.07 41.2663 149.17 41.081 150.429 41.081C152.289 41.081 153.753 41.4741 154.82 42.2603C155.894 43.0465 156.52 44.1172 156.699 45.4723Z" fill="black"/>
</svg>
