<svg width="214" height="216" viewBox="0 0 214 216" fill="none" xmlns="http://www.w3.org/2000/svg">
<g id="instagramIcon">
<path id="Ellipse 5" d="M211.5 108C211.5 166.288 164.692 213.5 107 213.5C49.3081 213.5 2.5 166.288 2.5 108C2.5 49.712 49.3081 2.5 107 2.5C164.692 2.5 211.5 49.712 211.5 108Z" stroke="#CBD2E0" stroke-width="5"/>
<g id="Vector">
<path fill-rule="evenodd" clip-rule="evenodd" d="M84 56C67.4315 56 54 69.4315 54 86V131C54 147.569 67.4315 161 84 161H130C146.569 161 160 147.569 160 131V86C160 69.4315 146.569 56 130 56H84ZM90 66C76.1929 66 65 77.1929 65 91V126C65 139.807 76.1929 151 90 151H124C137.807 151 149 139.807 149 126V91C149 77.1929 137.807 66 124 66H90Z" fill="#F7F9FC"/>
<path d="M141 80.5C141 84.0899 138.09 87 134.5 87C130.91 87 128 84.0899 128 80.5C128 76.9101 130.91 74 134.5 74C138.09 74 141 76.9101 141 80.5Z" fill="#F7F9FC"/>
<path fill-rule="evenodd" clip-rule="evenodd" d="M107 136C121.912 136 134 123.912 134 109C134 94.0883 121.912 82 107 82C92.0883 82 80 94.0883 80 109C80 123.912 92.0883 136 107 136ZM106.5 127C116.165 127 124 119.165 124 109.5C124 99.835 116.165 92 106.5 92C96.835 92 89 99.835 89 109.5C89 119.165 96.835 127 106.5 127Z" fill="#F7F9FC"/>
</g>
</g>
</svg>
