<svg width="214" height="216" viewBox="0 0 214 216" fill="none" xmlns="http://www.w3.org/2000/svg">
<g id="linkedinIcon">
<path id="Ellipse 2" d="M211.5 108C211.5 166.288 164.692 213.5 107 213.5C49.3081 213.5 2.5 166.288 2.5 108C2.5 49.712 49.3081 2.5 107 2.5C164.692 2.5 211.5 49.712 211.5 108Z" stroke="#CBD2E0" stroke-width="5"/>
<path id="Subtract" fill-rule="evenodd" clip-rule="evenodd" d="M69 56C60.7157 56 54 62.7157 54 71V146C54 154.284 60.7157 161 69 161H144C152.284 161 159 154.284 159 146V71C159 62.7157 152.284 56 144 56H69ZM94 95H80V141H94V95ZM100 95H113V109C113 101.82 118.82 96 126 96C133.18 96 139 101.82 139 109V141H126V114H125.981C125.726 110.644 122.922 108 119.5 108C116.078 108 113.274 110.644 113.019 114H113V141H100V95ZM93 82.5C93 86.0899 90.0899 89 86.5 89C82.9101 89 80 86.0899 80 82.5C80 78.9101 82.9101 76 86.5 76C90.0899 76 93 78.9101 93 82.5Z" fill="#F7F9FC"/>
</g>
</svg>
