<svg width="214" height="216" viewBox="0 0 214 216" fill="none" xmlns="http://www.w3.org/2000/svg">
<g id="mailIcon">
<path id="Ellipse 3" d="M211.5 108C211.5 166.288 164.692 213.5 107 213.5C49.3081 213.5 2.5 166.288 2.5 108C2.5 49.712 49.3081 2.5 107 2.5C164.692 2.5 211.5 49.712 211.5 108Z" stroke="#CBD2E0" stroke-width="5"/>
<path id="Subtract" fill-rule="evenodd" clip-rule="evenodd" d="M64 66C58.4772 66 54 70.4772 54 76V141C54 146.523 58.4772 151 64 151H150C155.523 151 160 146.523 160 141V76C160 70.4772 155.523 66 150 66H64ZM107 105L75 80.5H139L107 105ZM68.5 130V81L95 109.5L68.5 130ZM119 109.5L145.5 81V130L119 109.5ZM107 122L117.5 111L138 137.5H76L96.5 111L107 122Z" fill="#F7F9FC"/>
</g>
</svg>
