<svg width="214" height="216" viewBox="0 0 214 216" fill="none" xmlns="http://www.w3.org/2000/svg">
<g id="youtubeIcon">
<path id="Ellipse 1" d="M211.5 108C211.5 166.288 164.692 213.5 107 213.5C49.3081 213.5 2.5 166.288 2.5 108C2.5 49.712 49.3081 2.5 107 2.5C164.692 2.5 211.5 49.712 211.5 108Z" stroke="#CBD2E0" stroke-width="5"/>
<path id="Subtract" d="M92.5 134.914V135.954L93.3124 135.304L126.312 108.89L126.8 108.5L126.312 108.11L93.3124 81.6959L92.5 81.0456V82.0862L92.5 134.914ZM54.5 88C54.5 77.2304 63.2304 68.5 74 68.5H140C150.77 68.5 159.5 77.2304 159.5 88V128C159.5 138.77 150.77 147.5 140 147.5H74C63.2304 147.5 54.5 138.77 54.5 128V88Z" fill="#EDF0F7" stroke="#CBD2E0"/>
</g>
</svg>
